<svg xmlns="http://www.w3.org/2000/svg" xmlns:xlink="http://www.w3.org/1999/xlink" width="88" zoomAndPan="magnify" viewBox="0 0 66 34.499999" height="46" preserveAspectRatio="xMidYMid meet" version="1.0"><defs><clipPath id="ad7e01f957"><path d="M 0.472656 0 L 65.527344 0 L 65.527344 34.007812 L 0.472656 34.007812 Z M 0.472656 0 " clip-rule="nonzero"/></clipPath></defs><g clip-path="url(#ad7e01f957)"><path fill="#ffffff" d="M 0.472656 0 L 65.527344 0 L 65.527344 34.007812 L 0.472656 34.007812 Z M 0.472656 0 " fill-opacity="1" fill-rule="nonzero"/><path fill="#ffffff" d="M 0.472656 0 L 65.527344 0 L 65.527344 34.007812 L 0.472656 34.007812 Z M 0.472656 0 " fill-opacity="1" fill-rule="nonzero"/></g><path fill="#303c7a" d="M 48.480469 26.480469 C 47.867188 26.214844 47.269531 25.941406 46.664062 25.691406 C 44.316406 24.707031 41.878906 23.996094 39.375 23.542969 C 36.9375 23.101562 34.476562 22.898438 31.988281 22.914062 C 30.164062 22.921875 28.351562 23.050781 26.542969 23.277344 C 23.570312 23.648438 20.65625 24.285156 17.78125 25.125 C 17.742188 25.132812 17.703125 25.167969 17.636719 25.140625 C 17.929688 24.964844 18.203125 24.785156 18.484375 24.617188 C 22.28125 22.316406 26.347656 20.71875 30.691406 19.816406 C 32.222656 19.492188 33.773438 19.285156 35.339844 19.15625 C 37.003906 19.027344 38.65625 19.007812 40.320312 19.105469 C 41.621094 19.1875 42.917969 19.347656 44.203125 19.566406 C 44.355469 19.589844 44.414062 19.6875 44.484375 19.800781 C 45.785156 21.972656 47.078125 24.132812 48.375 26.304688 C 48.417969 26.359375 48.449219 26.417969 48.480469 26.480469 Z M 48.480469 26.480469 " fill-opacity="1" fill-rule="nonzero"/><path fill="#303c7a" d="M 41.855469 15.09375 C 41.175781 15.09375 40.5 15.085938 39.828125 15.09375 C 38.382812 15.121094 36.945312 15.207031 35.507812 15.363281 C 32.667969 15.675781 29.890625 16.320312 27.1875 17.242188 C 25.074219 17.960938 23.003906 18.816406 20.988281 19.757812 C 20.9375 19.785156 20.890625 19.800781 20.84375 19.824219 C 20.84375 19.769531 20.890625 19.75 20.914062 19.726562 C 24.394531 16.71875 28.1875 14.199219 32.386719 12.296875 C 34.453125 11.359375 36.574219 10.585938 38.753906 9.988281 C 38.851562 9.964844 38.890625 9.980469 38.941406 10.058594 C 39.894531 11.675781 40.84375 13.289062 41.796875 14.902344 C 41.820312 14.949219 41.855469 14.992188 41.855469 15.09375 Z M 41.855469 15.09375 " fill-opacity="1" fill-rule="nonzero"/><path fill="#303c7a" d="M 33.554688 0.714844 C 34.582031 2.441406 35.597656 4.136719 36.617188 5.855469 C 32.363281 7.65625 28.664062 10.292969 25.25 13.351562 C 25.242188 13.34375 25.234375 13.328125 25.21875 13.320312 C 28.003906 9.132812 30.769531 4.9375 33.554688 0.714844 Z M 33.554688 0.714844 " fill-opacity="1" fill-rule="nonzero"/><path fill="#303c7a" d="M 38.449219 30.757812 C 38.65625 30.023438 38.859375 29.296875 39.070312 28.5625 C 39.160156 28.257812 39.160156 28.257812 39.464844 28.257812 C 39.730469 28.257812 39.996094 28.257812 40.273438 28.257812 C 40.359375 28.257812 40.394531 28.28125 40.386719 28.371094 C 40.386719 29.53125 40.386719 30.703125 40.386719 31.863281 C 40.386719 31.953125 40.351562 31.984375 40.273438 31.976562 C 40.109375 31.96875 39.949219 31.96875 39.789062 31.976562 C 39.667969 31.984375 39.625 31.953125 39.625 31.824219 C 39.632812 30.925781 39.625 30.03125 39.609375 29.128906 C 39.570312 29.273438 39.53125 29.410156 39.488281 29.554688 C 39.28125 30.3125 39.078125 31.074219 38.875 31.839844 C 38.84375 31.945312 38.804688 31.992188 38.691406 31.984375 C 38.519531 31.976562 38.351562 31.976562 38.179688 31.984375 C 38.078125 31.992188 38.042969 31.953125 38.011719 31.855469 C 37.785156 31.007812 37.558594 30.167969 37.324219 29.320312 C 37.308594 29.273438 37.300781 29.234375 37.285156 29.175781 C 37.246094 29.234375 37.261719 29.28125 37.261719 29.328125 C 37.261719 30.167969 37.253906 31.007812 37.261719 31.839844 C 37.261719 31.953125 37.230469 31.992188 37.117188 31.984375 C 36.960938 31.976562 36.800781 31.976562 36.648438 31.984375 C 36.535156 31.992188 36.503906 31.953125 36.503906 31.839844 C 36.511719 30.78125 36.503906 29.726562 36.503906 28.667969 C 36.503906 28.5625 36.503906 28.464844 36.503906 28.363281 C 36.503906 28.28125 36.527344 28.265625 36.609375 28.265625 C 36.945312 28.265625 37.292969 28.273438 37.632812 28.265625 C 37.738281 28.265625 37.746094 28.328125 37.769531 28.394531 C 37.980469 29.121094 38.179688 29.847656 38.390625 30.566406 C 38.390625 30.621094 38.390625 30.695312 38.449219 30.757812 Z M 38.449219 30.757812 " fill-opacity="1" fill-rule="nonzero"/><path fill="#303c7a" d="M 25.863281 29.675781 C 25.855469 30.039062 25.871094 30.46875 25.839844 30.902344 C 25.789062 31.582031 25.363281 31.902344 24.773438 32.007812 C 24.441406 32.066406 24.105469 32.066406 23.773438 32.007812 C 23.070312 31.886719 22.722656 31.507812 22.683594 30.765625 C 22.644531 29.96875 22.675781 29.160156 22.667969 28.355469 C 22.667969 28.273438 22.707031 28.257812 22.773438 28.257812 C 22.964844 28.257812 23.160156 28.265625 23.351562 28.257812 C 23.457031 28.25 23.480469 28.289062 23.480469 28.394531 C 23.480469 29.039062 23.480469 29.691406 23.480469 30.339844 C 23.480469 30.492188 23.488281 30.636719 23.488281 30.789062 C 23.5 30.886719 23.523438 30.984375 23.570312 31.066406 C 23.804688 31.476562 24.628906 31.53125 24.917969 31.160156 C 25.015625 31.03125 25.03125 30.886719 25.039062 30.734375 C 25.046875 29.96875 25.054688 29.199219 25.046875 28.441406 C 25.046875 28.289062 25.097656 28.25 25.234375 28.265625 C 25.402344 28.273438 25.574219 28.273438 25.742188 28.265625 C 25.839844 28.265625 25.871094 28.289062 25.863281 28.386719 C 25.863281 28.789062 25.863281 29.199219 25.863281 29.675781 Z M 25.863281 29.675781 " fill-opacity="1" fill-rule="nonzero"/><path fill="#303c7a" d="M 47.519531 28.257812 C 48.003906 28.257812 48.496094 28.257812 48.980469 28.257812 C 49.085938 28.257812 49.144531 28.273438 49.128906 28.394531 C 49.121094 28.523438 49.121094 28.644531 49.128906 28.773438 C 49.136719 28.863281 49.101562 28.886719 49.015625 28.886719 C 48.699219 28.878906 48.382812 28.886719 48.0625 28.878906 C 47.949219 28.878906 47.925781 28.910156 47.925781 29.015625 C 47.933594 29.953125 47.925781 30.886719 47.933594 31.824219 C 47.933594 31.9375 47.910156 31.976562 47.789062 31.96875 C 47.609375 31.960938 47.441406 31.960938 47.261719 31.96875 C 47.140625 31.976562 47.109375 31.9375 47.109375 31.816406 C 47.117188 30.886719 47.109375 29.96875 47.117188 29.039062 C 47.117188 28.902344 47.078125 28.871094 46.949219 28.878906 C 46.648438 28.886719 46.351562 28.878906 46.058594 28.886719 C 45.9375 28.886719 45.90625 28.847656 45.914062 28.742188 C 45.921875 28.621094 45.921875 28.5 45.914062 28.378906 C 45.90625 28.28125 45.945312 28.257812 46.035156 28.257812 C 46.535156 28.265625 47.027344 28.257812 47.519531 28.257812 Z M 47.519531 28.257812 " fill-opacity="1" fill-rule="nonzero"/><path fill="#303c7a" d="M 28.730469 28.257812 C 29.214844 28.257812 29.707031 28.257812 30.191406 28.257812 C 30.304688 28.257812 30.335938 28.289062 30.328125 28.394531 C 30.320312 28.515625 30.320312 28.636719 30.328125 28.757812 C 30.335938 28.855469 30.304688 28.894531 30.199219 28.886719 C 29.882812 28.878906 29.578125 28.886719 29.261719 28.878906 C 29.148438 28.878906 29.125 28.910156 29.125 29.015625 C 29.132812 29.941406 29.125 30.878906 29.132812 31.808594 C 29.132812 31.929688 29.117188 31.984375 28.980469 31.96875 C 28.808594 31.953125 28.640625 31.960938 28.46875 31.96875 C 28.351562 31.976562 28.316406 31.945312 28.316406 31.816406 C 28.324219 30.886719 28.316406 29.953125 28.324219 29.023438 C 28.324219 28.902344 28.292969 28.871094 28.171875 28.871094 C 27.855469 28.878906 27.550781 28.871094 27.234375 28.878906 C 27.148438 28.878906 27.113281 28.855469 27.121094 28.765625 C 27.128906 28.636719 27.128906 28.515625 27.121094 28.386719 C 27.113281 28.28125 27.148438 28.242188 27.261719 28.25 C 27.746094 28.265625 28.238281 28.257812 28.730469 28.257812 Z M 28.730469 28.257812 " fill-opacity="1" fill-rule="nonzero"/><path fill="#303c7a" d="M 35.179688 29.933594 C 35.136719 29.085938 34.628906 28.457031 33.824219 28.265625 C 33.492188 28.183594 33.160156 28.175781 32.820312 28.222656 C 32.09375 28.328125 31.601562 28.726562 31.359375 29.417969 C 31.261719 29.710938 31.246094 30.023438 31.273438 30.332031 C 31.3125 30.925781 31.539062 31.4375 32.070312 31.742188 C 32.796875 32.164062 33.5625 32.171875 34.308594 31.792969 C 34.96875 31.453125 35.1875 30.839844 35.1875 30.128906 C 35.179688 30.0625 35.179688 30 35.179688 29.933594 Z M 34.339844 30.113281 C 34.347656 30.28125 34.332031 30.453125 34.28125 30.621094 C 34.152344 31.097656 33.765625 31.394531 33.265625 31.402344 C 32.742188 31.410156 32.328125 31.136719 32.183594 30.660156 C 32.070312 30.296875 32.070312 29.925781 32.183594 29.5625 C 32.328125 29.078125 32.757812 28.804688 33.3125 28.835938 C 33.832031 28.863281 34.203125 29.183594 34.296875 29.675781 C 34.332031 29.8125 34.339844 29.960938 34.339844 30.113281 Z M 34.339844 30.113281 " fill-opacity="1" fill-rule="nonzero"/><path fill="#303c7a" d="M 21.496094 31.855469 C 20.988281 30.6875 20.480469 29.523438 19.972656 28.355469 C 19.9375 28.28125 19.898438 28.257812 19.816406 28.257812 C 19.609375 28.265625 19.398438 28.265625 19.1875 28.257812 C 19.082031 28.25 19.042969 28.296875 19.011719 28.386719 C 18.871094 28.726562 18.726562 29.054688 18.589844 29.394531 C 18.242188 30.21875 17.902344 31.03125 17.550781 31.847656 C 17.5 31.96875 17.523438 31.984375 17.636719 31.976562 C 17.839844 31.96875 18.050781 31.96875 18.25 31.976562 C 18.332031 31.976562 18.371094 31.953125 18.398438 31.871094 C 18.476562 31.652344 18.574219 31.4375 18.65625 31.21875 C 18.679688 31.144531 18.71875 31.121094 18.792969 31.121094 C 19.035156 31.128906 19.269531 31.121094 19.511719 31.121094 C 19.738281 31.121094 19.960938 31.128906 20.179688 31.121094 C 20.285156 31.113281 20.332031 31.152344 20.367188 31.25 C 20.4375 31.453125 20.535156 31.652344 20.617188 31.855469 C 20.648438 31.9375 20.6875 31.96875 20.777344 31.96875 C 20.996094 31.960938 21.207031 31.960938 21.421875 31.96875 C 21.527344 31.984375 21.535156 31.953125 21.496094 31.855469 Z M 19.066406 30.5 C 19.035156 30.5 19.003906 30.5 18.945312 30.492188 C 19.125 30.039062 19.300781 29.597656 19.488281 29.128906 C 19.679688 29.605469 19.859375 30.046875 20.042969 30.5 C 19.703125 30.5 19.382812 30.5 19.066406 30.5 Z M 19.066406 30.5 " fill-opacity="1" fill-rule="nonzero"/><path fill="#303c7a" d="M 45.460938 31.855469 C 44.953125 30.695312 44.445312 29.53125 43.945312 28.371094 C 43.90625 28.289062 43.863281 28.257812 43.777344 28.257812 C 43.566406 28.265625 43.355469 28.265625 43.144531 28.257812 C 43.058594 28.257812 43.015625 28.289062 42.984375 28.371094 C 42.832031 28.75 42.660156 29.128906 42.507812 29.515625 C 42.175781 30.296875 41.847656 31.082031 41.515625 31.863281 C 41.476562 31.960938 41.492188 31.984375 41.597656 31.984375 C 41.804688 31.976562 42.015625 31.976562 42.226562 31.984375 C 42.304688 31.984375 42.347656 31.960938 42.378906 31.886719 C 42.460938 31.671875 42.546875 31.460938 42.628906 31.25 C 42.660156 31.167969 42.703125 31.136719 42.789062 31.136719 C 43.023438 31.144531 43.257812 31.136719 43.492188 31.136719 C 43.71875 31.136719 43.953125 31.144531 44.179688 31.136719 C 44.277344 31.136719 44.316406 31.167969 44.347656 31.25 C 44.429688 31.460938 44.519531 31.660156 44.597656 31.871094 C 44.632812 31.953125 44.664062 31.984375 44.753906 31.984375 C 44.96875 31.976562 45.179688 31.976562 45.398438 31.984375 C 45.496094 31.984375 45.511719 31.953125 45.460938 31.855469 Z M 42.917969 30.492188 C 43.097656 30.039062 43.273438 29.605469 43.460938 29.121094 C 43.65625 29.597656 43.832031 30.039062 44.019531 30.492188 C 43.644531 30.492188 43.292969 30.492188 42.917969 30.492188 Z M 42.917969 30.492188 " fill-opacity="1" fill-rule="nonzero"/><path fill="#303c7a" d="M 51.316406 23.671875 C 50.167969 23.671875 49.257812 24.585938 49.25 25.714844 C 49.25 26.84375 50.167969 27.773438 51.296875 27.78125 C 52.4375 27.78125 53.355469 26.875 53.355469 25.730469 C 53.355469 24.578125 52.460938 23.671875 51.316406 23.671875 Z M 51.324219 27.441406 C 50.378906 27.449219 49.585938 26.667969 49.585938 25.722656 C 49.585938 24.785156 50.363281 24.011719 51.289062 24.003906 C 52.242188 23.996094 53.027344 24.769531 53.027344 25.722656 C 53.027344 26.660156 52.257812 27.433594 51.324219 27.441406 Z M 51.324219 27.441406 " fill-opacity="1" fill-rule="nonzero"/><path fill="#303c7a" d="M 51.550781 25.882812 C 51.582031 25.867188 51.605469 25.859375 51.628906 25.851562 C 52 25.707031 52.15625 25.472656 52.105469 25.148438 C 52.058594 24.851562 51.824219 24.675781 51.445312 24.65625 C 51.160156 24.648438 50.878906 24.65625 50.597656 24.648438 C 50.425781 24.640625 50.402344 24.714844 50.410156 24.859375 C 50.417969 25.464844 50.417969 26.0625 50.410156 26.667969 C 50.410156 26.796875 50.425781 26.859375 50.589844 26.859375 C 50.75 26.859375 50.789062 26.796875 50.78125 26.652344 C 50.773438 26.496094 50.796875 26.335938 50.773438 26.183594 C 50.726562 25.890625 50.894531 25.890625 51.089844 25.925781 C 51.226562 25.941406 51.324219 26.023438 51.394531 26.132812 C 51.492188 26.28125 51.605469 26.417969 51.671875 26.578125 C 51.78125 26.84375 51.960938 26.917969 52.25 26.828125 C 52.023438 26.496094 51.855469 26.140625 51.550781 25.882812 Z M 51.121094 25.617188 C 51 25.585938 50.824219 25.675781 50.789062 25.5625 C 50.742188 25.382812 50.773438 25.183594 50.78125 24.996094 C 50.78125 24.980469 50.796875 24.964844 50.8125 24.957031 C 50.933594 24.867188 51.582031 24.972656 51.671875 25.085938 C 51.808594 25.261719 51.726562 25.519531 51.492188 25.578125 C 51.371094 25.609375 51.242188 25.609375 51.121094 25.617188 Z M 51.121094 25.617188 " fill-opacity="1" fill-rule="nonzero"/></svg>